<svg width="48" height="48" viewBox="0 0 48 48" fill="none" xmlns="http://www.w3.org/2000/svg">
<g clip-path="url(#clip0_61_284)">
<path d="M32.2872 3.31396H5.79443V48.0132H42.2187V13.2427H32.2872V3.31396Z" fill="#E0F2CD"/>
<path d="M13.2466 48.0001H42.219V24.8286C42.219 36.7193 27.4344 48.0001 13.2466 48.0001Z" fill="#CFECB3"/>
<path d="M1.65746 0H19.8762C20.7912 0 21.5337 0.742336 21.5337 1.657V24.8285C21.5337 25.7432 20.7912 26.4855 19.8762 26.4855H1.65746C0.742541 26.4855 0 25.7432 0 24.8285V1.657C0 0.742336 0.742541 0 1.65746 0Z" fill="#D4E5F5"/>
<path d="M32.2871 13.2427H42.2186L32.2871 3.31396V13.2427Z" fill="#2E6BE7"/>
<path d="M2.47949 2.479H19.0408V6.61488H2.47949V2.479Z" fill="#A1EE5A"/>
<path d="M4.13704 9.10693H5.7945C6.24533 9.10693 6.6166 9.4781 6.6166 9.92881V11.5858C6.6166 12.0365 6.24533 12.4077 5.7945 12.4077H4.13704C3.68621 12.4077 3.31494 12.0365 3.31494 11.5858V9.92881C3.31494 9.4781 3.68621 9.10693 4.13704 9.10693Z" fill="#2E6BE7"/>
<path d="M9.93147 9.10693H11.5889C12.0398 9.10693 12.411 9.4781 12.411 9.92881V11.5858C12.411 12.0365 12.0398 12.4077 11.5889 12.4077H9.93147C9.48065 12.4077 9.10938 12.0365 9.10938 11.5858V9.92881C9.10938 9.4781 9.48065 9.10693 9.93147 9.10693Z" fill="#2E6BE7"/>
<path d="M15.7259 9.10693H17.3834C17.8342 9.10693 18.2055 9.4781 18.2055 9.92881V11.5858C18.2055 12.0365 17.8342 12.4077 17.3834 12.4077H15.7259C15.2751 12.4077 14.9038 12.0365 14.9038 11.5858V9.92881C14.9038 9.4781 15.2751 9.10693 15.7259 9.10693Z" fill="#2E6BE7"/>
<path d="M4.13704 14.8999H5.7945C6.24533 14.8999 6.6166 15.2711 6.6166 15.7218V17.3788C6.6166 17.8295 6.24533 18.2006 5.7945 18.2006H4.13704C3.68621 18.2006 3.31494 17.8295 3.31494 17.3788V15.7218C3.31494 15.2711 3.68621 14.8999 4.13704 14.8999Z" fill="#2E6BE7"/>
<path d="M9.93147 14.8999H11.5889C12.0398 14.8999 12.411 15.2711 12.411 15.7218V17.3788C12.411 17.8295 12.0398 18.2006 11.5889 18.2006H9.93147C9.48065 18.2006 9.10938 17.8295 9.10938 17.3788V15.7218C9.10938 15.2711 9.48065 14.8999 9.93147 14.8999Z" fill="#2E6BE7"/>
<path d="M15.7259 14.8999H17.3834C17.8342 14.8999 18.2055 15.2711 18.2055 15.7218V17.3788C18.2055 17.8295 17.8342 18.2006 17.3834 18.2006H15.7259C15.2751 18.2006 14.9038 17.8295 14.9038 17.3788V15.7218C14.9038 15.2711 15.2751 14.8999 15.7259 14.8999Z" fill="#2E6BE7"/>
<path d="M4.13704 20.6929H5.7945C6.24533 20.6929 6.6166 21.064 6.6166 21.5147V23.1717C6.6166 23.6224 6.24533 23.9936 5.7945 23.9936H4.13704C3.68621 23.9936 3.31494 23.6224 3.31494 23.1717V21.5147C3.31494 21.064 3.68621 20.6929 4.13704 20.6929Z" fill="#2E6BE7"/>
<path d="M9.93147 20.6929H11.5889C12.0398 20.6929 12.411 21.064 12.411 21.5147V23.1717C12.411 23.6224 12.0398 23.9936 11.5889 23.9936H9.93147C9.48065 23.9936 9.10938 23.6224 9.10938 23.1717V21.5147C9.10938 21.064 9.48065 20.6929 9.93147 20.6929Z" fill="#2E6BE7"/>
<path d="M47.5094 28.5136C48.1591 27.8641 48.1591 26.8169 47.5094 26.1673C46.8597 25.5178 45.8122 25.5178 45.1625 26.1673L43.9956 27.3339L46.3426 29.6802L47.5094 28.5136Z" fill="#D0D2D3"/>
<path d="M30.9744 40.3512L28.9722 44.6859L33.3081 42.6842L44.5788 31.4166L42.2318 29.0703L30.9611 40.3379L30.9744 40.3512Z" fill="#D93832"/>
<path d="M42.2451 29.0838L43.9954 27.334L46.3424 29.6803L44.5921 31.4301L42.2451 29.0838Z" fill="#E8983E"/>
<path d="M3.31494 26.4857H19.8763C20.7912 26.4857 21.5337 25.7434 21.5337 24.8287V11.5859C21.5337 19.8179 13.3923 26.4857 3.31494 26.4857Z" fill="#C7DDF3"/>
<path d="M15.7259 20.6924H17.3834C17.8342 20.6924 18.2055 21.0636 18.2055 21.5143V23.1713C18.2055 23.622 17.8342 23.9931 17.3834 23.9931H15.7259C15.2751 23.9931 14.9038 23.622 14.9038 23.1713V21.5143C14.9038 21.0636 15.2751 20.6924 15.7259 20.6924Z" fill="#2E6BE7"/>
<path d="M25.6709 19.8706H27.3284V21.5276H25.6709V19.8706Z" fill="#4485F6"/>
<path d="M28.9722 19.8706H38.9037V21.5276H28.9722V19.8706Z" fill="#4485F6"/>
<path d="M25.6709 16.5566H27.3284V18.2136H25.6709V16.5566Z" fill="#4485F6"/>
<path d="M28.9722 16.5566H38.9037V18.2136H28.9722V16.5566Z" fill="#4485F6"/>
<path d="M25.6709 23.1714H27.3284V24.8284H25.6709V23.1714Z" fill="#4485F6"/>
<path d="M28.9722 23.1714H38.9037V24.8284H28.9722V23.1714Z" fill="#4485F6"/>
<path d="M25.6709 26.4854H27.3284V28.1424H25.6709V26.4854Z" fill="#4485F6"/>
<path d="M28.9722 26.4854H38.9037V28.1424H28.9722V26.4854Z" fill="#4485F6"/>
<path d="M10.7671 37.2492C10.7671 41.3586 14.1085 44.6991 18.219 44.6991V29.7993C14.1085 29.7993 10.7671 33.1398 10.7671 37.2492Z" fill="#F09C3C"/>
<path d="M18.2188 29.7993V44.6991C22.3292 44.6991 25.6707 41.3586 25.6707 37.2492C25.6707 33.1398 22.3292 29.7993 18.2188 29.7993Z" fill="#F1A446"/>
<path d="M18.2186 34.7573C19.2264 34.7573 19.8761 35.2477 19.8761 35.5791H21.5336C21.5336 34.3994 20.4861 33.4449 19.054 33.1798V32.2651H17.3965V33.1798C15.9512 33.4449 14.917 34.3994 14.917 35.5791C14.917 36.971 16.3756 38.058 18.2319 38.058C19.2396 38.058 19.8894 38.5485 19.8894 38.8799C19.8894 39.2113 19.2396 39.7018 18.2319 39.7018C17.2242 39.7018 16.5745 39.2113 16.5745 38.8799H14.917C14.917 40.0597 15.9645 41.0141 17.3965 41.2792V42.1939H19.054V41.2792C20.4993 41.0141 21.5336 40.0597 21.5336 38.8799C21.5336 37.488 20.075 36.401 18.2186 36.401C17.2109 36.401 16.5612 35.9105 16.5612 35.5791C16.5612 35.2477 17.2109 34.7573 18.2186 34.7573Z" fill="#EB5E37"/>
</g>
<defs>
<clipPath id="clip0_61_284">
<rect width="48" height="48" fill="white"/>
</clipPath>
</defs>
</svg>
