<svg width="48" height="48" viewBox="0 0 48 48" fill="none" xmlns="http://www.w3.org/2000/svg">
<g clip-path="url(#clip0_61_274)">
<path fill-rule="evenodd" clip-rule="evenodd" d="M25.1491 34.7767L11.7716 47.9712C11.5211 47.4949 11.8158 46.8741 11.7716 46.2967L16.4714 33.1598C22.3646 33.1598 24.2062 32.0771 25.1491 34.7767Z" fill="#5FA059"/>
<path d="M47.6614 12.0542C48.7664 10.1487 46.9101 7.89663 44.7738 8.57513L1.69459 22.2605C-0.382759 22.9246 -0.618487 25.6963 1.32626 26.678L28.4791 40.4356C29.643 41.0275 31.0869 40.6088 31.7351 39.4828L47.6614 12.0398V12.0542Z" fill="#449431"/>
<path d="M28.4788 24.1227C29.245 23.0544 28.0663 21.5531 26.7698 22.1161L10.8729 29.2475C10.0037 29.6373 9.44385 30.489 9.44385 31.4274L11.0939 47.5669C11.1529 48.0866 11.8748 48.1588 12.0516 47.668L16.2652 35.6427C16.5599 34.8054 17.0755 34.0692 17.768 33.5062C20.4788 31.283 27.5359 25.4364 28.4788 24.1083V24.1227Z" fill="#22541D"/>
<path d="M9.35547 13.9453C9.35547 21.6397 15.7201 27.8905 23.5875 27.8905C31.4549 27.8905 37.8196 21.6541 37.8196 13.9453C37.8196 6.23639 31.4402 0 23.5728 0C15.7054 0 9.35547 6.23639 9.35547 13.9453Z" fill="#F4BC51"/>
<path fill-rule="evenodd" clip-rule="evenodd" d="M24.5598 7.21819C24.5598 6.68406 24.1179 6.25098 23.5727 6.25098C23.0276 6.25098 22.5856 6.68406 22.5856 7.21819V8.18541H20.6851C19.5654 8.18541 18.6667 8.6185 18.0626 9.31143C17.4733 9.98992 17.1934 10.8417 17.1934 11.6789C17.1934 12.5162 17.4733 13.368 18.0626 14.0465C18.6667 14.7394 19.5801 15.1725 20.6851 15.1725H22.5856V18.2907H18.8876C18.3425 18.2907 17.9005 18.7238 17.9005 19.2579C17.9005 19.792 18.3425 20.2251 18.8876 20.2251H22.5856V21.1923C22.5856 21.7265 23.0276 22.1595 23.5727 22.1595C24.1179 22.1595 24.5598 21.7265 24.5598 21.1923V20.2251H26.4604C27.5801 20.2251 28.4788 19.792 29.0829 19.0991C29.6722 18.4206 29.9521 17.5689 29.9521 16.7316C29.9521 15.8943 29.6722 15.0426 29.0829 14.3641C28.4788 13.6711 27.5654 13.238 26.4604 13.238H24.5598V10.1198H27.9042C28.4493 10.1198 28.8913 9.68677 28.8913 9.15263C28.8913 8.6185 28.4493 8.18541 27.9042 8.18541H24.5598V7.21819ZM22.6004 10.1054H20.6998C20.14 10.1054 19.7864 10.3075 19.5506 10.5674C19.3002 10.8417 19.1676 11.2459 19.1676 11.6789C19.1676 12.112 19.3149 12.5162 19.5506 12.7905C19.7716 13.0504 20.1252 13.2525 20.6998 13.2525H22.6004V10.1343V10.1054ZM24.5598 15.158V18.2762H26.4604C27.0202 18.2762 27.3738 18.0741 27.6096 17.8143C27.86 17.54 27.9926 17.1358 27.9926 16.7027C27.9926 16.2696 27.8453 15.8654 27.6096 15.5911C27.3886 15.3313 27.035 15.1292 26.4604 15.1292H24.5598V15.158Z" fill="white"/>
</g>
<defs>
<clipPath id="clip0_61_274">
<rect width="48" height="48" fill="white"/>
</clipPath>
</defs>
</svg>
