<svg width="48" height="48" viewBox="0 0 48 48" fill="none" xmlns="http://www.w3.org/2000/svg">
<g clip-path="url(#clip0_61_256)">
<path d="M43.864 40.0001H4.13574V8.00012H43.864C45.6933 8.00012 47.178 6.40582 47.178 4.44141V36.4414C47.178 38.4058 45.6933 40.0001 43.864 40.0001Z" fill="#848DAD"/>
<path d="M47.1779 4.44092V36.4409C47.1779 38.4053 45.6932 39.9996 43.8639 39.9996H23.9932V7.99964H43.8639C45.6932 7.99964 47.1779 6.40533 47.1779 4.44092Z" fill="#64708F"/>
<path d="M2.47878 18.6616H14.0645C15.8939 18.6616 17.3785 20.2559 17.3785 22.2203V25.7791C17.3785 27.7435 15.8939 29.3378 14.0645 29.3378H2.47878C1.56411 29.3378 0.821777 28.5406 0.821777 27.5584V20.441C0.821777 19.4588 1.56411 18.6616 2.47878 18.6616Z" fill="#64708F"/>
<path d="M7.44971 0.882324H43.864C45.6933 0.882324 47.178 2.47663 47.178 4.44104C47.178 6.40546 45.6933 7.99976 43.864 7.99976H7.44971V0.882324Z" fill="#64708F"/>
<path d="M47.1779 4.44104C47.1779 6.40546 45.6932 7.99976 43.8639 7.99976H23.9932V0.882324H43.8639C45.6932 0.882324 47.1779 2.4624 47.1779 4.42681V4.44104Z" fill="#3F485E"/>
<path d="M12.4207 25.7794C13.3358 25.7794 14.0777 24.9828 14.0777 24.0001C14.0777 23.0174 13.3358 22.2207 12.4207 22.2207C11.5055 22.2207 10.7637 23.0174 10.7637 24.0001C10.7637 24.9828 11.5055 25.7794 12.4207 25.7794Z" fill="#3F485E"/>
<path d="M38.9065 47.103C43.4749 47.103 47.1783 43.1262 47.1783 38.2205C47.1783 33.3147 43.4749 29.3379 38.9065 29.3379C34.3382 29.3379 30.6348 33.3147 30.6348 38.2205C30.6348 43.1262 34.3382 47.103 38.9065 47.103Z" fill="#98F57C"/>
<path d="M47.178 38.2205C47.178 43.1316 43.4663 47.1031 38.9062 47.1031V29.3237C43.4796 29.3237 47.178 33.3095 47.178 38.2063V38.2205Z" fill="#6DCA48"/>
<path d="M10.7637 3.55859H43.8772V5.33795H10.7637V3.55859Z" fill="black"/>
<path d="M14.8996 23.9998C14.8996 22.5336 13.7861 21.3379 12.4208 21.3379C11.0554 21.3379 9.94189 22.5336 9.94189 23.9998C9.94189 25.466 11.0554 26.6617 12.4208 26.6617C13.7861 26.6617 14.8996 25.466 14.8996 23.9998ZM12.4208 24.8824C11.9701 24.8824 11.5989 24.4838 11.5989 23.9998C11.5989 23.5158 11.9701 23.1173 12.4208 23.1173C12.8715 23.1173 13.2426 23.5158 13.2426 23.9998C13.2426 24.4838 12.8715 24.8824 12.4208 24.8824Z" fill="black"/>
<path d="M39.7284 32.8823H38.0714V37.3236H33.9355V39.103H38.0714V43.5442H39.7284V39.103H43.8643V37.3236H39.7284V32.8823Z" fill="black"/>
<path d="M43.864 0H7.44973C6.99903 0 6.62786 0.398577 6.62786 0.882562V7.1032H4.14899C3.69828 7.1032 3.32711 7.50178 3.32711 7.98577V17.7651H2.50524C1.13987 17.7651 0.0263672 18.9609 0.0263672 20.427V27.5445C0.0263672 29.0107 1.13987 30.2064 2.50524 30.2064H3.32711V39.9858C3.32711 40.4697 3.69828 40.8683 4.14899 40.8683H30.1573C31.5226 46.0641 36.5599 49.0818 41.3984 47.6014C45.3221 46.4057 48.0264 42.5623 48.0131 38.1922C48.0131 37.8221 47.9866 37.452 47.9468 37.0818C47.9866 36.8683 47.9999 36.6406 48.0131 36.4128V4.44128C48.0131 1.99288 46.1573 0 43.8772 0H43.864ZM1.65686 27.5587V20.4413C1.65686 19.9573 2.02802 19.5587 2.47873 19.5587H14.0645C15.4298 19.5587 16.5434 20.7544 16.5434 22.2206V25.7794C16.5434 27.2456 15.4298 28.4413 14.0645 28.4413H2.47873C2.02802 28.4413 1.65686 28.0427 1.65686 27.5587ZM38.9062 46.2206C34.7969 46.2206 31.4564 42.6335 31.4564 38.2206C31.4564 33.8078 34.7969 30.2206 38.9062 30.2206C43.0156 30.2206 46.3561 33.8078 46.3561 38.2206C46.3561 42.6335 43.0156 46.2206 38.9062 46.2206ZM38.9062 28.4413C33.8822 28.4413 29.8126 32.8256 29.7994 38.2206C29.7994 38.5196 29.8126 38.8185 29.8391 39.1032H4.97086V30.2206H14.0777C16.3578 30.2206 18.2136 28.2278 18.2136 25.7794V22.2206C18.2136 19.7722 16.3578 17.7794 14.0777 17.7794H4.97086V8.8968H43.8772C44.7786 8.8968 45.6403 8.58363 46.3561 8.01424V32.6406C44.6593 30.0214 41.8756 28.4698 38.9062 28.4698V28.4413ZM43.8772 7.1032H8.2716V1.77936H43.864C45.2294 1.77936 46.3429 2.97509 46.3429 4.44128C46.3429 5.90747 45.2294 7.1032 43.864 7.1032H43.8772Z" fill="black"/>
</g>
<defs>
<clipPath id="clip0_61_256">
<rect width="48" height="48" fill="white"/>
</clipPath>
</defs>
</svg>
