<svg width="48" height="48" viewBox="0 0 48 48" fill="none" xmlns="http://www.w3.org/2000/svg">
<g clip-path="url(#clip0_61_319)">
<path d="M8.92202 4.36487C8.62005 4.22761 8.26317 4.28252 8.00237 4.50213L0.288333 11.3514C0.0138121 11.5848 -0.0685442 11.9691 0.0549902 12.2985C0.178525 12.628 0.494224 12.8476 0.851101 12.8476H8.56514C9.03183 12.8476 9.41616 12.4632 9.41616 11.9966V5.14726C9.41616 4.80411 9.22399 4.50213 8.90829 4.36487H8.92202Z" fill="#81A963"/>
<path d="M29.9915 5.1474V41.1371C29.9915 41.6038 29.6071 41.9881 29.1405 41.9881H2.56683C1.48247 41.9881 0.507918 41.3018 0.137315 40.2724C0.0412323 39.9978 -0.0136719 39.7096 -0.0136719 39.4214V11.9967C-0.0136719 11.53 0.370658 11.1457 0.837343 11.1457H7.70037V5.1474C7.70037 4.68072 8.0847 4.29639 8.55138 4.29639H29.1267C29.5934 4.29639 29.9777 4.68072 29.9777 5.1474H29.9915Z" fill="#CCDD93"/>
<path d="M29.9915 5.1474V41.1371C29.9915 41.6038 29.6071 41.9881 29.1405 41.9881H2.56683C1.48247 41.9881 0.507918 41.3018 0.137315 40.2724C0.0412323 39.9978 -0.0136719 39.7096 -0.0136719 39.4214V37.7056C6.34149 37.7056 12.4496 35.1663 16.938 30.6641C18.5989 28.9896 20.0264 27.0954 21.1382 25.0227C23.0049 21.55 23.9932 17.6656 23.9795 13.7125V4.96896C24.3226 4.72189 24.6932 4.50228 25.0638 4.29639H29.113C29.5797 4.29639 29.964 4.68072 29.964 5.1474H29.9915Z" fill="#81A963"/>
<path d="M29.9916 5.1474V29.8955C22.4835 28.9347 17.1715 22.0716 18.1323 14.5497C18.6264 10.6653 20.7677 7.17886 23.9933 4.96896C24.3365 4.72189 24.7071 4.50228 25.0777 4.29639H29.1269C29.5936 4.29639 29.9779 4.68072 29.9779 5.1474H29.9916Z" fill="#81A963"/>
<path d="M43.7036 15.4282H32.558V4.28266C32.558 3.81597 32.1737 3.43164 31.707 3.43164C24.6106 3.43164 18.8457 9.18286 18.8457 16.2929C18.8457 23.403 24.5969 29.1543 31.707 29.1543C38.8171 29.1543 44.5683 23.403 44.5683 16.2929C44.5683 15.8263 44.184 15.4419 43.7173 15.4419L43.7036 15.4282Z" fill="#3D5482"/>
<path d="M42.9075 15.4832H32.5031V5.07883C32.5031 4.63959 32.1463 4.28271 31.707 4.28271C25.0773 4.28271 19.7104 9.6496 19.7104 16.2793C19.7104 22.909 25.0773 28.2759 31.707 28.2759C38.3367 28.2759 43.7036 22.909 43.7036 16.2793C43.7036 15.84 43.3467 15.4832 42.9075 15.4832Z" fill="white"/>
<path d="M43.704 16.279C43.704 22.9087 38.3234 28.2756 31.6937 28.2756C28.9073 28.2756 26.217 27.301 24.062 25.5304C24.6248 25.6127 25.2013 25.6539 25.7778 25.6539C31.6937 25.6539 36.7174 21.3302 37.6233 15.4829H42.9079C43.3471 15.4829 43.704 15.8398 43.704 16.279Z" fill="#F0F6DC"/>
<path d="M35.1386 5.4176e-05C34.6719 5.4176e-05 34.2876 0.384384 34.2876 0.851069V12.8476C34.2876 13.3143 34.6719 13.6987 35.1386 13.6987H47.1352C47.6019 13.6987 47.9862 13.3143 47.9862 12.8476C47.9862 5.75127 42.235 -0.0136719 35.1249 -0.0136719L35.1386 5.4176e-05Z" fill="#CCDD93"/>
<path d="M47.9999 12.8612C47.9999 13.3278 47.6155 13.7122 47.1489 13.7122H35.1523C34.6856 13.7122 34.3013 13.3278 34.3013 12.8612V11.1454H35.4268C40.8211 11.1454 43.5526 4.47453 39.5721 0.864583L39.4897 0.782227C44.5958 2.60779 47.9999 7.43936 48.0136 12.8612H47.9999Z" fill="#81A963"/>
<path d="M28.2892 41.1372H23.142C21.7282 41.1372 20.5752 42.2902 20.5752 43.704V47.1355C20.5752 47.6022 20.9595 47.9865 21.4262 47.9865H28.2892C28.7559 47.9865 29.1403 47.6022 29.1403 47.1355V41.9882C29.1403 41.5215 28.7559 41.1372 28.2892 41.1372Z" fill="#CCDD93"/>
<path d="M43.7039 41.1372H38.5566C38.0899 41.1372 37.7056 41.5215 37.7056 41.9882V47.1355C37.7056 47.6022 38.0899 47.9865 38.5566 47.9865H45.4196C45.8863 47.9865 46.2706 47.6022 46.2706 47.1355V43.704C46.2706 42.2902 45.1176 41.1372 43.7039 41.1372Z" fill="#CCDD93"/>
<path d="M28.2892 35.9897H23.142C21.7282 35.9897 20.5752 37.1427 20.5752 38.5565V40.2723C20.5752 41.6861 21.7282 42.839 23.142 42.839H28.2892C28.7559 42.839 29.1403 42.4547 29.1403 41.988V36.8408C29.1403 36.3741 28.7559 35.9897 28.2892 35.9897Z" fill="#4A7E38"/>
<path d="M43.7039 35.9897H38.5566C38.0899 35.9897 37.7056 36.3741 37.7056 36.8408V41.988C37.7056 42.4547 38.0899 42.839 38.5566 42.839H43.7039C45.1176 42.839 46.2706 41.6861 46.2706 40.2723V38.5565C46.2706 37.1427 45.1176 35.9897 43.7039 35.9897Z" fill="#4A7E38"/>
<path d="M28.2892 30.8564H23.142C21.7282 30.8564 20.5752 32.0094 20.5752 33.4232V35.139C20.5752 36.5528 21.7282 37.7057 23.142 37.7057H28.2892C28.7559 37.7057 29.1403 37.3214 29.1403 36.8547V31.7075C29.1403 31.2408 28.7559 30.8564 28.2892 30.8564Z" fill="#CCDD93"/>
<path d="M43.7039 30.8564H38.5566C38.0899 30.8564 37.7056 31.2408 37.7056 31.7075V36.8547C37.7056 37.3214 38.0899 37.7057 38.5566 37.7057H43.7039C45.1176 37.7057 46.2706 36.5528 46.2706 35.139V33.4232C46.2706 32.0094 45.1176 30.8564 43.7039 30.8564Z" fill="#CCDD93"/>
<path opacity="0.3" d="M26.2305 30.8564H40.6291V48.0003H26.2305V30.8564Z" fill="#2E4C25"/>
<path d="M27.4248 30.8564H39.4214V48.0003H27.4248V30.8564Z" fill="white"/>
<path d="M39.4214 30.8564V48.0003H27.4248V44.5688C32.627 44.5688 36.8546 40.3411 36.8546 35.139V30.8564H39.4214Z" fill="#F0F6DC"/>
<path d="M19.2027 40.286H2.56677C2.10009 40.286 1.71576 39.9016 1.71576 39.4349V12.8613H8.57878C9.04547 12.8613 9.4298 12.477 9.4298 12.0103V6.01201H22.2911V4.29625H8.56506C8.35916 4.29625 8.15327 4.37861 8.00229 4.51587L0.288247 11.3652C0.109808 11.5299 0 11.7495 0 11.9966V39.4212C0 40.835 1.15299 41.988 2.56677 41.988H19.189V40.2722L19.2027 40.286ZM3.11581 11.1456L7.71404 7.05519V11.1456H3.11581ZM46.2842 43.7175C46.2842 43.0861 46.0372 42.4684 45.6117 42.0017C46.0372 41.535 46.2705 40.9174 46.2842 40.286V38.5702C46.2842 37.9388 46.0372 37.3211 45.6117 36.8544C46.0372 36.3878 46.2705 35.7701 46.2842 35.1387V33.4229C46.2842 32.0092 45.1313 30.8562 43.7175 30.8562H23.1421C21.7283 30.8562 20.5753 32.0092 20.5753 33.4229V35.1387C20.5753 35.7701 20.8224 36.3878 21.2479 36.8544C20.8224 37.3211 20.5891 37.9388 20.5753 38.5702V40.286C20.5753 40.9174 20.8224 41.535 21.2479 42.0017C20.8224 42.4684 20.5891 43.0861 20.5753 43.7175V46.2842H18.8596V48H48V46.2842H46.2842V43.7175ZM39.4212 37.7192H43.7037C44.1704 37.7192 44.5548 38.1035 44.5548 38.5702V40.286C44.5548 40.7526 44.1704 41.137 43.7037 41.137H39.4212V37.7055V37.7192ZM44.5685 33.4367V35.1524C44.5685 35.6191 44.1842 36.0034 43.7175 36.0034H39.4349V32.5719H43.7175C44.1842 32.5719 44.5685 32.9562 44.5685 33.4229V33.4367ZM22.2911 40.2997V38.5839C22.2911 38.1172 22.6754 37.7329 23.1421 37.7329H27.4246V41.1644H23.1421C22.6754 41.1644 22.2911 40.7801 22.2911 40.3134V40.2997ZM22.2911 33.4367C22.2911 32.97 22.6754 32.5856 23.1421 32.5856H27.4246V36.0172H23.1421C22.6754 36.0172 22.2911 35.6328 22.2911 35.1661V33.4504V33.4367ZM22.2911 43.7175C22.2911 43.2508 22.6754 42.8665 23.1421 42.8665H27.4246V46.298H22.2774V43.7312L22.2911 43.7175ZM29.1541 42.0017V32.5719H37.7192V46.2842H29.1541V42.0017ZM39.4349 46.2842V42.8527H43.7175C44.1842 42.8527 44.5685 43.2371 44.5685 43.7037V46.2705H39.4212L39.4349 46.2842ZM34.2877 36.0034H36.0034V37.7192H32.5719V38.5702H35.1387C35.6054 38.5702 35.9897 38.9545 35.9897 39.4212V41.988C35.9897 42.4547 35.6054 42.839 35.1387 42.839H34.2877V44.5548H32.5719V42.839H30.8562V41.1232H34.2877V40.2722H31.7209C31.2542 40.2722 30.8699 39.8879 30.8699 39.4212V36.8544C30.8699 36.3878 31.2542 36.0034 31.7209 36.0034H32.5719V34.2877H34.2877V36.0034ZM31.7209 29.1404C38.8173 29.1404 44.5822 23.3892 44.5822 16.2791C44.5822 15.8124 44.1979 15.4281 43.7312 15.4281H32.5856V4.28253C32.5856 3.81584 32.2013 3.43151 31.7346 3.43151C24.6383 3.43151 18.8733 9.18273 18.8733 16.2928C18.8733 23.4029 24.6245 29.1541 31.7346 29.1541L31.7209 29.1404ZM30.8699 5.14727V22.2911H32.5856V17.1438H42.8665C42.3723 23.2794 37.0054 27.8502 30.8699 27.356C24.7343 26.8619 20.1636 21.495 20.6577 15.3595C21.0969 9.91021 25.4206 5.5865 30.8699 5.14727ZM35.1524 13.7123H47.149C47.6157 13.7123 48 13.328 48 12.8613C48 5.76494 42.2488 0 35.1387 0C34.672 0 34.2877 0.384329 34.2877 0.851015V12.8476C34.2877 13.3143 34.672 13.6986 35.1387 13.6986L35.1524 13.7123ZM36.0034 1.71576C41.5076 2.12754 45.8725 6.49242 46.2842 11.9966H36.0034V1.71576ZM18.8596 28.2894H8.57878V26.5736H18.8596V28.2894ZM13.7123 31.7209H3.43151V30.0051H13.7123V31.7209ZM18.8596 35.1524H8.57878V33.4367H18.8596V35.1524ZM18.0086 12.875H11.1456V11.1593H18.0086V12.875ZM19.7243 9.44352H11.1593V7.72777H19.7243V9.44352ZM11.1593 21.4401V20.5891H8.59251C8.12582 20.5891 7.74149 20.2047 7.74149 19.7381V17.1713C7.74149 16.7046 8.12582 16.3203 8.59251 16.3203H9.44352V14.6045H11.1593V16.3203H12.875V18.036H9.44352V18.887H12.0103C12.477 18.887 12.8613 19.2714 12.8613 19.7381V22.3048C12.8613 22.7715 12.477 23.1558 12.0103 23.1558H11.1593V24.8716H9.44352V23.1558H7.72777V21.4401H11.1593ZM6.87675 26.5874V28.3031H3.44524V26.5874H6.87675ZM18.8733 31.7346H15.4418V30.0189H18.8733V31.7346ZM32.5856 25.7363H30.8699V23.1696H32.5856V25.7363ZM8.56506 38.5702H6.8493V36.8544H8.56506V38.5702ZM10.2808 38.5702V36.8544H11.9966V38.5702H10.2808ZM13.7123 38.5702V36.8544H15.4281V38.5702H13.7123ZM17.1438 38.5702V36.8544H18.8596V38.5702H17.1438ZM3.43151 36.8544H5.14727V38.5702H3.43151V36.8544ZM6.86303 35.1387H3.43151V33.4229H6.86303V35.1387Z" fill="#2E4C25"/>
</g>
<defs>
<clipPath id="clip0_61_319">
<rect width="48" height="48" fill="white"/>
</clipPath>
</defs>
</svg>
